<svg width="40" height="40" viewBox="0 0 40 40" fill="none" xmlns="http://www.w3.org/2000/svg">
<path d="M36.6786 9.96764H36.2731C36.0335 9.12586 35.6986 8.31823 35.273 7.55465L35.5612 7.26638C35.891 6.93678 36.0724 6.49718 36.0724 6.02852C36.0724 5.55986 35.891 5.12034 35.561 4.79035L33.6407 2.87235C33.311 2.54056 32.8708 2.35791 32.4013 2.35791C31.9318 2.35791 31.4916 2.54056 31.1635 2.87071L30.8756 3.15859C30.1115 2.73165 29.3036 2.39619 28.4623 2.15659V1.75121C28.4624 0.785605 27.6769 0 26.7112 0H23.9963C23.0307 0 22.2451 0.785605 22.2451 1.75121V2.15659C21.404 2.39611 20.5956 2.73165 19.8299 3.1589L19.5433 2.87235C19.2134 2.54056 18.7733 2.35791 18.3038 2.35799C17.8344 2.35799 17.3942 2.54072 17.0661 2.87079L15.1463 4.79074C14.8165 5.12034 14.635 5.55994 14.635 6.0286C14.635 6.49726 14.8165 6.93678 15.1462 7.26638L15.4343 7.55457C15.0069 8.32049 14.6719 9.12828 14.4335 9.96764H14.0266C13.061 9.96764 12.2754 10.7532 12.2754 11.7188V14.4361C12.2754 15.4017 13.061 16.1873 14.0266 16.1873H14.4335C14.6719 17.0266 15.0069 17.8344 15.4343 18.6004L15.1462 18.8886C14.8164 19.2182 14.6349 19.6578 14.6349 20.1264C14.6349 20.595 14.8164 21.0346 15.1461 21.3642L17.0645 23.2826C17.3942 23.6144 17.8343 23.797 18.3038 23.797H18.3038C18.7733 23.797 19.2135 23.6144 19.5417 23.2843L19.8298 22.9961C20.5963 23.4237 21.4047 23.7588 22.245 23.997V24.4038C22.245 25.3694 23.0306 26.155 23.9962 26.155H26.7111C27.6767 26.155 28.4623 25.3694 28.4623 24.4038V23.997C29.3028 23.7587 30.1106 23.4238 30.8756 22.9964L31.1619 23.2826C31.4916 23.6144 31.9318 23.797 32.4012 23.797C32.8707 23.797 33.311 23.6143 33.6388 23.2846L35.5612 21.3642C35.8909 21.0345 36.0724 20.5949 36.0724 20.1264C36.0724 19.6577 35.8909 19.2182 35.5612 18.8886L35.2729 18.6003C35.6985 17.8367 36.0333 17.0291 36.2731 16.1873H36.6785C37.6441 16.1873 38.4297 15.4017 38.4297 14.4361V11.7188C38.4298 10.7532 37.6443 9.96764 36.6786 9.96764ZM26.8999 24.4038C26.8999 24.5061 26.8135 24.5925 26.7112 24.5925H23.9963C23.8939 24.5925 23.8075 24.5061 23.8075 24.4038V23.3895V18.4644C23.8075 18.1377 23.6042 17.8455 23.298 17.7319C21.1987 16.9533 19.7882 14.9329 19.7882 12.7044C19.7882 10.9382 20.6677 9.28265 22.1403 8.27604C22.2064 8.23088 22.2648 8.19401 22.3159 8.16378C22.3131 8.26534 22.3059 8.3619 22.3021 8.41229C22.2962 8.49158 22.2915 8.55416 22.2915 8.61627V12.3034C22.2915 13.9958 23.6139 15.4092 25.3019 15.5212C25.3364 15.5234 25.3709 15.5234 25.4054 15.5212C27.0922 15.4093 28.4136 13.9959 28.4136 12.3034V8.61627C28.4136 8.55447 28.409 8.49228 28.4032 8.41346C28.3994 8.36283 28.3922 8.26573 28.3895 8.1637C28.4404 8.19385 28.4986 8.23065 28.5644 8.27573C30.0374 9.28258 30.9169 10.9382 30.9169 12.7043C30.9169 14.9326 29.5072 16.9531 27.4091 17.7319C27.103 17.8456 26.8998 18.1377 26.8998 18.4643V23.3894V24.4038H26.8999ZM36.8673 14.4361C36.8673 14.5367 36.7791 14.6249 36.6786 14.6249H35.6666C35.3016 14.6249 34.9852 14.8776 34.9047 15.2336C34.6572 16.3268 34.2287 17.3605 33.631 18.306C33.4359 18.6148 33.4807 19.0176 33.739 19.2758L34.4565 19.9934C34.5031 20.04 34.5101 20.0967 34.5101 20.1264C34.5101 20.156 34.5031 20.2128 34.4568 20.259L32.5327 22.181C32.4887 22.2252 32.4369 22.2345 32.4013 22.2345C32.3657 22.2345 32.314 22.2252 32.2684 22.1793L31.5508 21.4617C31.2922 21.2031 30.889 21.1586 30.5802 21.3542C29.9134 21.7768 29.2036 22.1121 28.4624 22.3599V18.984C30.8861 17.856 32.4795 15.398 32.4795 12.7042C32.4795 10.4217 31.3455 8.28393 29.4464 6.98576C29.1554 6.78694 28.2707 6.18203 27.4969 6.62741C26.7371 7.0649 26.8128 8.09042 26.845 8.52838C26.8478 8.56642 26.8506 8.59837 26.8512 8.61627V12.3034C26.8512 13.1586 26.1976 13.8755 25.3537 13.9579C24.5087 13.8754 23.8541 13.1585 23.8541 12.3034L23.854 8.62189C23.8547 8.59837 23.8575 8.56642 23.8603 8.52822C23.8929 8.0905 23.9692 7.06552 23.21 6.6278C22.4365 6.18164 21.5505 6.78678 21.259 6.98576C19.3597 8.28401 18.2258 10.4218 18.2258 12.7043C18.2258 15.3985 19.82 17.8567 22.2451 18.9843V22.36C21.5037 22.1122 20.7931 21.7767 20.1243 21.3539C19.9957 21.2727 19.851 21.2331 19.707 21.2331C19.5052 21.2331 19.3051 21.3111 19.1544 21.4619L18.4353 22.181C18.3913 22.2253 18.3395 22.2346 18.3039 22.2346C18.2683 22.2346 18.2166 22.2253 18.171 22.1794L16.2511 20.2594C16.2044 20.2128 16.1975 20.156 16.1975 20.1264C16.1975 20.0968 16.2044 20.04 16.2511 19.9934L16.9686 19.2758C17.2268 19.0176 17.2717 18.6148 17.0765 18.306C16.4758 17.3555 16.0473 16.3222 15.8032 15.2349C15.7232 14.8783 15.4065 14.6248 15.0409 14.6248H14.0268C13.9262 14.6248 13.838 14.5366 13.838 14.436V11.7188C13.838 11.6164 13.9244 11.53 14.0268 11.53H15.0409C15.4065 11.53 15.7231 11.2765 15.8032 10.9199C16.0473 9.83256 16.4757 8.79923 17.0765 7.84878C17.2717 7.54004 17.2268 7.13724 16.9686 6.87897L16.251 6.16141C16.2044 6.11484 16.1975 6.05813 16.1975 6.02844C16.1975 5.99875 16.2044 5.94204 16.2511 5.8954L18.1727 3.97373C18.2166 3.92951 18.2684 3.92021 18.304 3.92021C18.3396 3.92021 18.3913 3.92951 18.437 3.97537L19.1544 4.69293C19.4129 4.95128 19.8157 4.99604 20.1243 4.80089C21.0736 4.20075 22.108 3.77147 23.1986 3.52514C23.5548 3.44468 23.8077 3.1282 23.8077 2.76313V1.75121C23.8077 1.64886 23.8941 1.56246 23.9964 1.56246H26.7114C26.8137 1.56246 26.9001 1.64886 26.9001 1.75121V2.76329C26.9001 3.12844 27.153 3.44483 27.5091 3.5253C28.6007 3.77186 29.6339 4.20091 30.5804 4.80066C30.8892 4.99628 31.2923 4.95175 31.551 4.69316L32.2701 3.97396C32.3141 3.92974 32.3659 3.92045 32.4014 3.92045C32.4371 3.92045 32.4888 3.92974 32.5347 3.97591L34.4567 5.89563C34.5033 5.94219 34.5102 5.99891 34.5102 6.0286C34.5102 6.05828 34.5033 6.115 34.4566 6.16164L33.7391 6.8792C33.4809 7.13747 33.436 7.54028 33.6312 7.84902C34.2288 8.79454 34.6574 9.82819 34.9048 10.9214C34.9854 11.2774 35.3018 11.5302 35.6667 11.5302H36.6788C36.7811 11.5302 36.8675 11.6166 36.8675 11.7189V14.4361H36.8673Z" fill="white"/>
<path d="M29.9046 34.3992C29.5995 34.7043 29.5995 35.1989 29.9046 35.5041C30.0572 35.6566 30.2571 35.7329 30.457 35.7329C30.6569 35.7329 30.8569 35.6566 31.0094 35.5041L31.0116 35.5019C31.3167 35.1968 31.3156 34.7032 31.0104 34.3982C30.7053 34.0931 30.2097 34.0943 29.9046 34.3992Z" fill="white"/>
<path d="M33.5243 26.8313L27.322 30.0164C26.7962 29.4719 26.0595 29.1322 25.2446 29.1322H20.9951C20.7571 29.1322 20.699 29.1133 20.6951 29.112C20.6606 29.0939 20.5517 28.9915 20.4643 28.9094L20.4255 28.873C16.9875 25.6366 14.0833 25.8416 10.7806 27.145C10.2463 27.356 10.236 27.3564 9.69932 27.3793L8.73841 27.38C8.46467 26.5542 7.68563 25.9565 6.76916 25.9565H3.64456C2.50185 25.9565 1.57227 26.8872 1.57227 28.0311V36.2316C1.57227 37.3742 2.50185 38.3039 3.64456 38.3039H6.76916C7.68555 38.3039 8.46451 37.707 8.73833 36.8821H10.4961C10.6513 36.8821 10.6513 36.8821 10.8319 36.933C10.8975 36.9515 10.9773 36.974 11.0805 37.0017L19.1657 39.1648C19.5221 39.2611 19.849 39.3558 20.1652 39.4474C21.2011 39.7475 22.0718 39.9999 22.9794 39.9999C24.0051 39.9999 25.0777 39.6775 26.4883 38.7374C26.4951 38.7329 26.5019 38.7282 26.5087 38.7234L28.0522 37.6227C28.4035 37.3722 28.4853 36.8844 28.2347 36.5331C27.9842 36.1817 27.4962 36.1 27.1451 36.3506L25.6118 37.4439C23.5647 38.8055 22.6954 38.5538 20.6 37.9466C20.2772 37.8531 19.9434 37.7564 19.5715 37.6559L11.4856 35.4928C11.3909 35.4673 11.3166 35.4464 11.2557 35.4292C10.9607 35.3461 10.8504 35.3198 10.4962 35.3198H8.84372V28.9431H9.688C9.69925 28.9431 9.71034 28.9429 9.72159 28.9424L9.76612 28.9405C10.421 28.9126 10.6042 28.8947 11.3544 28.5985C14.255 27.4539 16.494 27.3178 19.3556 30.0118L19.3943 30.0481C19.8834 30.5077 20.165 30.6949 20.9951 30.6949H25.2447C25.7434 30.6949 26.1784 30.9717 26.4051 31.3796C26.4075 31.3841 26.4103 31.3884 26.4128 31.393C26.5141 31.5802 26.5717 31.7944 26.5717 32.0219C26.5717 32.7525 25.9765 33.3468 25.2448 33.3468H18.3577C17.9263 33.3468 17.5765 33.6965 17.5765 34.128C17.5765 34.5595 17.9263 34.9092 18.3577 34.9092H25.2448C26.838 34.9092 28.1342 33.614 28.1342 32.0219C28.1342 31.8055 28.1095 31.5949 28.0642 31.392L34.2381 28.2214C34.8224 27.9214 35.6215 27.9536 36.0182 28.5973C36.3691 29.1647 36.1761 29.9189 35.5694 30.3514L32.8612 32.2803C32.5097 32.5306 32.4277 33.0184 32.678 33.3699C32.8304 33.5839 33.0708 33.698 33.315 33.698C33.4718 33.698 33.63 33.6509 33.7675 33.5531L36.4761 31.624C37.7624 30.7069 38.1368 29.0524 37.3476 27.7766C36.5715 26.5171 34.928 26.1107 33.5243 26.8313ZM7.28118 36.2316C7.28118 36.508 7.04674 36.7414 6.76916 36.7414H3.64456C3.36816 36.7414 3.13473 36.5079 3.13473 36.2316V28.0312C3.13473 27.7488 3.36347 27.5191 3.64456 27.5191H6.76916C7.04674 27.5191 7.28118 27.7535 7.28118 28.0312V36.2316Z" fill="white"/>
</svg>
